<?xml version="1.0" encoding="utf-8"?>
<!-- Generator: Adobe Illustrator 18.1.0, SVG Export Plug-In . SVG Version: 6.00 Build 0)  -->
<svg version="1.1" id="Layer_11" xmlns="http://www.w3.org/2000/svg" xmlns:xlink="http://www.w3.org/1999/xlink" x="0px" y="0px"
	 viewBox="12.7 20 36.1 24.8" enable-background="new 12.7 20 36.1 24.8" xml:space="preserve">
<g>
	<path fill="#c6c6c6" d="M30.9,29.7c0.5,0,1,0.1,1.5,0.3c0-0.7,0.3-1.4,0.7-1.9c-0.3-0.1-0.6-0.1-0.9-0.1h-2.8c-0.3,0-0.6,0-0.9,0.1
		c0.4,0.6,0.7,1.3,0.7,2.1C29.7,29.8,30.3,29.7,30.9,29.7z"/>
	<circle fill="#c6c6c6" cx="30.7" cy="24.3" r="3.3"/>
	<path fill="#c6c6c6" d="M36,33.4c1.7,0,3.1-1.4,3.1-3.1c0-1.7-1.4-3.1-3.1-3.1c-1.7,0-3.1,1.4-3.1,3c1,0.6,1.7,1.6,1.8,2.8
		C35.1,33.3,35.5,33.4,36,33.4z"/>
	<path fill="#c6c6c6" d="M25.5,27.2c-1.7,0-3.1,1.4-3.1,3.1c0,1.7,1.4,3.1,3.1,3.1c0.6,0,1.2-0.2,1.6-0.5c0.2-1,0.7-1.9,1.4-2.4
		c0-0.1,0-0.1,0-0.2C28.6,28.6,27.2,27.2,25.5,27.2z"/>
	<path fill="#c6c6c6" d="M38,27.2c1,0.6,1.7,1.6,1.8,2.8c0.4,0.2,0.8,0.3,1.3,0.3c1.7,0,3.1-1.4,3.1-3.1c0-1.7-1.4-3.1-3.1-3.1
		C39.4,24.1,38,25.5,38,27.2z"/>
	<circle fill="#c6c6c6" cx="30.9" cy="33.5" r="3.1"/>
	<path fill="#c6c6c6" d="M37.3,33.6h-2.6c0,1.1-0.5,2-1.2,2.6c1.9,0.6,3.3,2.4,3.3,4.5v1c2.6-0.1,4.1-0.8,4.1-0.9l0.2-0.1h0v-3.2
		C41.2,35.4,39.5,33.6,37.3,33.6z"/>
	<path fill="#c6c6c6" d="M42.4,30.5h-2.6c0,1.1-0.5,2-1.2,2.6c1.9,0.6,3.3,2.4,3.3,4.5v1c2.6-0.1,4.1-0.8,4.1-0.9l0.2-0.1h0v-3.2
		C46.3,32.3,44.6,30.5,42.4,30.5z"/>
	<path fill="#c6c6c6" d="M28.3,36.2c-0.7-0.7-1.1-1.6-1.2-2.6c-0.1,0-0.2,0-0.3,0h-2.6c-2.2,0-4,1.8-4,4v3.2v0.1l0.2,0.1
		c1.7,0.5,3.2,0.8,4.4,0.8v-1C24.9,38.6,26.3,36.8,28.3,36.2z"/>
	<path fill="#c6c6c6" d="M32.2,36.8h-2.6c-2.2,0-4,1.8-4,4v3.2V44l0.2,0.1c2.1,0.6,3.9,0.9,5.4,0.9c2.9,0,4.6-0.8,4.7-0.9l0.2-0.1h0
		v-3.2C36.1,38.6,34.4,36.8,32.2,36.8z"/>
	<path fill="#c6c6c6" d="M20.3,30.4c0.5,0,0.9-0.1,1.3-0.3c0.1-1.2,0.8-2.2,1.8-2.8c0-1.7-1.4-3-3.1-3s-3.1,1.4-3.1,3.1
		C17.3,29,18.7,30.4,20.3,30.4z"/>
	<path fill="#c6c6c6" d="M22.8,33.3c-0.7-0.7-1.1-1.6-1.2-2.6H19c-2.2,0-4,1.8-4,4v3.2h0l0.2,0.1c0.1,0.1,1.6,0.8,4.1,0.9v-1
		C19.5,35.6,20.9,33.8,22.8,33.3z"/>
	<path fill="#c6c6c6" d="M24,26.9c0.4-0.2,0.9-0.3,1.5-0.3c0.6,0,1.2,0.2,1.8,0.5c0.1-0.1,0.2-0.3,0.3-0.4c-0.5-0.7-0.8-1.5-0.8-2.4
		c0-0.6,0.1-1.1,0.4-1.7c-0.6-0.5-1.3-0.8-2-0.8c-1.4,0-2.6,0.9-2.9,2.3C23.2,24.7,23.9,25.8,24,26.9z"/>
	<path fill="#c6c6c6" d="M33.9,26.5c0.1,0.2,0.2,0.3,0.4,0.5c0.5-0.3,1.1-0.4,1.6-0.4c0.5,0,1.1,0.1,1.4,0.3c0.1-1.3,0.9-2.4,2-3
		c-0.4-1.2-1.6-2-2.9-2c-0.8,0-1.6,0.4-2.2,1c0.2,0.5,0.3,1,0.3,1.5C34.6,25.1,34.4,25.8,33.9,26.5z"/>
</g>
</svg>
