<?xml version="1.0" encoding="utf-8"?>
<!-- Generator: Adobe Illustrator 18.1.0, SVG Export Plug-In . SVG Version: 6.00 Build 0)  -->
<svg version="1.1" id="Layer_1" xmlns="http://www.w3.org/2000/svg" xmlns:xlink="http://www.w3.org/1999/xlink" x="0px" y="0px"
	 viewBox="-255 347 100 100" enable-background="new -255 347 100 100" xml:space="preserve">
<path fill="#c6c6c6" d="M-192.1,440.3c-1.7-1.3-1.9-3.2-1.9-3.2l-0.7-4.2h-20.7l-0.7,4.2c0,0-0.2,1.9-1.9,3.2
	c-1.7,1.3-3.1,2.4-1.7,2.6c1.3,0.2,13.7,0,14.7,0c0.9,0,13.3,0.2,14.7,0C-189,442.7-190.3,441.6-192.1,440.3z"/>
<g>
	<path fill="#c6c6c6" d="M-228.3,407.2c5.5,0,6.2-1.4,8-6.9c3.3-8.8,18.3,2.3,9,6.1C-220.6,410.2-233.9,407.2-228.3,407.2z"/>
	<path fill="#c6c6c6" d="M-171.6,349.4c-2.7-2.2-7.1-1.1-9.9,2.4l-28.4,40.3c-2.8,3.5-2.8,2.8-0.1,5c2.7,2.2,2,2.3,4.8-1.2
		l33.4-36.3C-169,356.1-168.9,351.5-171.6,349.4z M-178.9,354.2c0,0-0.4-0.5-1.8-1.6c2.1-3.4,6.2-2.8,6.2-2.8
		C-178.4,352.1-178.9,354.2-178.9,354.2z"/>
</g>
<path fill="#c6c6c6" d="M-159,363h-12.5l-5.5,6h16v48h-88v-48h51.2l4.2-6H-251c-2.2,0-4,1.8-4,4v58c0,2.2,1.8,4,4,4h92
	c2.2,0,4-1.8,4-4v-58C-155,364.8-156.8,363-159,363z"/>
</svg>
