<?xml version="1.0" encoding="utf-8"?>
<!-- Generator: Adobe Illustrator 18.1.0, SVG Export Plug-In . SVG Version: 6.00 Build 0)  -->
<svg version="1.1" id="Layer_1" xmlns="http://www.w3.org/2000/svg" xmlns:xlink="http://www.w3.org/1999/xlink" x="0px" y="0px"
	 viewBox="1.7 2 44.5 44.6" enable-background="new 1.7 2 44.5 44.6" xml:space="preserve">
<path fill="#c6c6c6" d="M46.1,24.3c0,2-1.6,3.6-3.6,3.6c-2,0-3.6-1.6-3.6-3.6s1.6-3.6,3.6-3.6C44.5,20.7,46.1,22.3,46.1,24.3z
	 M8.9,24.3c0-2-1.6-3.6-3.6-3.6s-3.6,1.6-3.6,3.6s1.6,3.6,3.6,3.6S8.9,26.3,8.9,24.3z M24,39.4c-2,0-3.6,1.6-3.6,3.6
	c0,2,1.6,3.6,3.6,3.6c2,0,3.6-1.6,3.6-3.6C27.6,41,25.9,39.4,24,39.4z M24,9.2c2,0,3.6-1.6,3.6-3.6S25.9,2,24,2s-3.6,1.6-3.6,3.6
	S22,9.2,24,9.2z M34.6,34.9c-1.4,1.4-1.4,3.6,0,5c1.4,1.4,3.6,1.4,5,0c1.4-1.4,1.4-3.6,0-5C38.2,33.5,36,33.5,34.6,34.9z M13.3,13.7
	c1.4-1.4,1.4-3.6,0-5c-1.4-1.4-3.6-1.4-5,0c-1.4,1.4-1.4,3.6,0,5C9.7,15.1,11.9,15.1,13.3,13.7z M8.3,34.9c-1.4,1.4-1.4,3.6,0,5
	c1.4,1.4,3.6,1.4,5,0c1.4-1.4,1.4-3.6,0-5C11.9,33.5,9.7,33.5,8.3,34.9z M39.6,13.7c1.4-1.4,1.4-3.6,0-5c-1.4-1.4-3.6-1.4-5,0
	s-1.4,3.6,0,5C36,15.1,38.2,15.1,39.6,13.7z M33.4,31.5l-3.2-3.2c0.7-1.1,1.1-2.2,1.2-3.5h4.7c0.7,0,1.2-0.5,1.2-1.2
	c0-0.7-0.5-1.2-1.2-1.2h-4.9c-0.2-1.2-0.8-2.2-1.5-3l3.6-3.6c0.5-0.5,0.5-1.2,0-1.6c-0.5-0.5-1.2-0.5-1.6,0L27.9,18
	c-0.9-0.6-1.9-0.9-2.9-1.2v-5.4c0-0.7-0.5-1.2-1.2-1.2s-1.2,0.5-1.2,1.2v5.4c-1.1,0.1-2.1,0.6-2.9,1.2L16,14.3
	c-0.5-0.5-1.2-0.5-1.6,0c-0.5,0.5-0.5,1.2,0,1.6l3.6,3.6c-0.7,0.9-1.3,1.9-1.5,3h-4.9c-0.7,0-1.2,0.5-1.2,1.2c0,0.7,0.5,1.2,1.2,1.2
	h4.7c0.1,1.3,0.5,2.5,1.2,3.5l-3.2,3.2c-0.5,0.5-0.5,1.2,0,1.6c0.2,0.2,0.6,0.4,0.8,0.4c0.4,0,0.6-0.1,0.8-0.4l3-3
	c1.1,0.8,2.2,1.4,3.6,1.6V36c0,0.7,0.5,1.2,1.2,1.2s1.2-0.5,1.2-1.2v-4.2c1.4-0.2,2.6-0.8,3.6-1.6l3,3c0.2,0.2,0.6,0.4,0.8,0.4
	c0.4,0,0.6-0.1,0.8-0.4C33.9,32.7,33.9,32,33.4,31.5z"/>
</svg>
