<?xml version="1.0" encoding="utf-8"?>
<!-- Generator: Adobe Illustrator 18.1.0, SVG Export Plug-In . SVG Version: 6.00 Build 0)  -->
<svg version="1.1" xmlns="http://www.w3.org/2000/svg" xmlns:xlink="http://www.w3.org/1999/xlink" x="0px" y="0px"
	 viewBox="0 0 200 200" enable-background="new 0 0 200 200" xml:space="preserve">
<g id="Layer_1">
</g>
<g id="Broken_Heart_With_Crack_Line">
</g>
<g id="Sad_Face">
</g>
<g id="Magic_Wand_Auto_Fix_Button">
</g>
<g id="Bug_Fixing">
	<g>
		<path fill="#42A80B" d="M186,133.3L186,133.3l-77.3-77.9l-0.1-36.6l-37.4-10l-4,4L87,32.6L67.6,52.1L47.7,32.2l-4,4l10,37.4
			l35.6,0.1l-0.2,0.2l77.9,78.3l0.1-0.1c5.2,5.1,13.6,5.1,18.7-0.1C191,146.9,191,138.5,186,133.3z M180.9,147.1
			c-2.3,2.3-6.1,2.3-8.3,0c-2.3-2.3-2.3-6,0-8.3c2.3-2.3,6-2.3,8.4,0C183.2,141,183.2,144.7,180.9,147.1z"/>
		<path fill="#42A80B" d="M24.9,89.4c0.6,0.1,15.4,3.1,18.6,19.8c-4,4.3-6.5,10.2-6.5,16.8c0,0.1,0,0.1,0,0.2h42.2
			c0-0.1,0-0.1,0-0.2c0-6.6-2.5-12.6-6.5-16.8c3.2-16.7,18-19.7,18.6-19.8c1.4-0.3,2.3-1.6,2.1-3c-0.3-1.4-1.6-2.3-3-2.1
			c-0.2,0-17.3,3.3-22.1,21.2c-3-1.8-6.5-2.9-10.2-2.9c-3.7,0-7.1,1.1-10.2,2.9c-4.9-17.9-22-21.2-22.1-21.2c-1.4-0.2-2.7,0.7-3,2.1
			C22.6,87.8,23.6,89.1,24.9,89.4z"/>
		<path fill="#42A80B" d="M105.7,109.9c-1.8-0.6-3.7,0.5-4.3,2.3c0,0-4.2,13.5-5.1,16.4c-1.8,0.5-7.3,2-11.2,3.1
			c-0.1-0.6-0.3-1.2-0.4-1.8H31.6c-0.1,0.6-0.3,1.2-0.4,1.8c-3.8-1.1-9.4-2.6-11.2-3.1c-0.9-2.9-5.1-16.4-5.1-16.4
			c-0.5-1.8-2.5-2.8-4.3-2.3c-1.8,0.5-2.8,2.5-2.3,4.3l6.2,19.9l15.6,4.3c-0.1,1.4-0.2,2.9-0.2,4.4c0,1.8,0.1,3.6,0.3,5.4l-15.6,7
			l-4.9,27.5c-0.3,1.9,0.9,3.6,2.8,4c1.8,0.3,3.6-0.9,3.9-2.8c0,0,3.7-20.9,4.2-24c1.5-0.7,6.4-2.9,10.7-4.8
			c3.7,15.7,14.3,27.1,26.8,27.1c12.5,0,23.1-11.4,26.8-27.1c4.2,1.9,9.1,4.1,10.6,4.8c0.5,3.1,4.2,24,4.2,24c0.3,1.9,2.1,3.1,4,2.8
			c1.9-0.3,3.1-2.1,2.8-4l-4.9-27.5l-15.6-7c0.2-1.8,0.3-3.6,0.3-5.4c0-1.5-0.1-2.9-0.2-4.4l15.6-4.3l6.2-19.9
			C108.5,112.4,107.5,110.5,105.7,109.9z"/>
	</g>
</g>
</svg>
