<?xml version="1.0" encoding="utf-8"?>
<!-- Generator: Adobe Illustrator 18.1.0, SVG Export Plug-In . SVG Version: 6.00 Build 0)  -->
<svg version="1.1" id="Capa_1" xmlns="http://www.w3.org/2000/svg" xmlns:xlink="http://www.w3.org/1999/xlink" x="0px" y="0px"
	 viewBox="-49 141 512 512" enable-background="new -49 141 512 512" xml:space="preserve">
<path fill="#c6c6c6" d="M207,141c-141.4,0-256,35.8-256,80v48l192,192v160c0,17.7,28.7,32,64,32c35.3,0,64-14.3,64-32V461l192-192
	v-48C463,176.8,348.4,141,207,141z M-1.8,210.4c12-6.8,28.8-13.3,48.6-18.7c44-12,100.9-18.7,160.2-18.7
	c59.3,0,116.2,6.6,160.2,18.7c19.8,5.4,36.7,11.9,48.6,18.7c7.9,4.5,12.2,8.3,14.1,10.6c-2,2.3-6.3,6.1-14.1,10.6
	c-12,6.8-28.8,13.3-48.6,18.7c-44,12-100.9,18.7-160.2,18.7s-116.2-6.6-160.2-18.7c-19.8-5.4-36.7-11.9-48.6-18.7
	C-9.7,227.1-14,223.3-16,221C-14,218.7-9.7,214.9-1.8,210.4z"/>
</svg>
