<?xml version="1.0" encoding="utf-8"?>
<!-- Generator: Adobe Illustrator 18.1.0, SVG Export Plug-In . SVG Version: 6.00 Build 0)  -->
<svg version="1.1" id="Layer_1" xmlns="http://www.w3.org/2000/svg" xmlns:xlink="http://www.w3.org/1999/xlink" x="0px" y="0px"
	 viewBox="0 0 46.8 47" enable-background="new 0 0 46.8 47" xml:space="preserve">
<g id="Layer_1_1_">
</g>
<g id="hasztag.psd_2_">
	<g id="Rounded_Rectangle_1_copy_3_2_">
		<g>
			<path fill="#c6c6c6" d="M45,16.4c0.5,0,0.8-0.3,0.8-0.8V9.3c0-0.5-0.3-0.8-0.8-0.8h-6.7V1.8c0-0.5-0.3-0.8-0.8-0.8h-6.3
				c-0.5,0-0.8,0.3-0.8,0.8v6.7H16.6V1.8c0-0.5-0.3-0.8-0.8-0.8H9.5C9.1,1,8.7,1.3,8.7,1.8v6.7H2c-0.5,0-0.8,0.3-0.8,0.8v6.3
				c0,0.5,0.3,0.8,0.8,0.8h6.7v13.8H2c-0.5,0-0.8,0.3-0.8,0.8v6.3c0,0.5,0.3,0.8,0.8,0.8h6.7v6.7c0,0.5,0.3,0.8,0.8,0.8h6.3
				c0.5,0,0.8-0.3,0.8-0.8v-6.7h13.8v6.7c0,0.5,0.3,0.8,0.8,0.8h6.3c0.5,0,0.8-0.3,0.8-0.8v-6.7H45c0.5,0,0.8-0.3,0.8-0.8V31
				c0-0.5-0.3-0.8-0.8-0.8h-6.7V16.4H45z M30.4,30.2H16.6V16.4h13.8V30.2z"/>
		</g>
	</g>
</g>
</svg>
