<?xml version="1.0" encoding="utf-8"?>
<!-- Generator: Adobe Illustrator 18.1.0, SVG Export Plug-In . SVG Version: 6.00 Build 0)  -->
<svg version="1.1" id="Capa_1" xmlns="http://www.w3.org/2000/svg" xmlns:xlink="http://www.w3.org/1999/xlink" x="0px" y="0px"
	 viewBox="-265 357 80 80" enable-background="new -265 357 80 80" xml:space="preserve">
<g>
	<path fill="#c6c6c6" d="M-235.7,420.5l-4,4c-3.5,3.5-9.2,3.5-12.7,0c-1.7-1.7-2.6-3.9-2.6-6.3s0.9-4.6,2.6-6.3l14.9-14.8
		c3.1-3.1,8.9-7.6,13.1-3.4c1.9,1.9,5.1,1.9,7,0c1.9-1.9,1.9-5.1,0-7c-7.2-7.1-17.8-5.8-27.1,3.4l-14.9,14.8
		c-3.6,3.5-5.5,8.3-5.5,13.3c0,5,2,9.7,5.5,13.3c3.7,3.6,8.5,5.5,13.3,5.5c4.8,0,9.7-1.8,13.3-5.5l4.1-4c1.9-1.9,2-5.1,0-7
		C-230.6,418.6-233.8,418.5-235.7,420.5z M-190.5,363c-7.7-7.7-18.5-8.1-25.7-1l-5,5c-1.9,1.9-2,5.1,0,7c1.9,1.9,5.1,2,7,0l5-5
		c3.7-3.7,8.6-2.2,11.7,1c1.7,1.7,2.6,3.9,2.6,6.3c0,2.4-0.9,4.6-2.6,6.3l-15.9,15.8c-7.3,7.2-10.7,3.8-12.1,2.4
		c-1.9-1.9-5.1-1.9-7,0c-1.9,1.9-1.9,5.1,0,7c3.3,3.3,7.1,5,11.1,5c4.9,0,10.1-2.5,15-7.3l15.9-15.8c3.6-3.5,5.5-8.3,5.5-13.3
		C-185,371.3-187,366.6-190.5,363z"/>
</g>
</svg>
