<?xml version="1.0" encoding="utf-8"?>
<!-- Generator: Adobe Illustrator 18.1.0, SVG Export Plug-In . SVG Version: 6.00 Build 0)  -->
<svg version="1.1" id="Capa_1" xmlns="http://www.w3.org/2000/svg" xmlns:xlink="http://www.w3.org/1999/xlink" x="0px" y="0px"
	 viewBox="-285 378 40 37" enable-background="new -285 378 40 37" xml:space="preserve">
<g id="_x37_3._Messages">
	<g>
		<path fill="#c6c6c6" d="M-249,392h-2v4h2v10h-18v-4h-4v4c0,2.2,1.8,4,4,4h2v4c0,1.1,0.5,1.3,1.2,0.4l3.3-4.4h11.5c2.2,0,4-1.8,4-4
			v-10C-245,393.8-246.8,392-249,392z M-253,396v-14c0-2.2-1.8-4-4-4h-24c-2.2,0-4,1.8-4,4v14c0,2.2,1.8,4,4,4h2v6
			c0,1.1,0.5,1.3,1.2,0.4l4.8-6.4h16C-254.8,400-253,398.2-253,396z M-281,396v-14h24v14H-281z"/>
	</g>
</g>
</svg>
