<?xml version="1.0" encoding="utf-8"?>
<!-- Generator: Adobe Illustrator 18.1.0, SVG Export Plug-In . SVG Version: 6.00 Build 0)  -->
<svg version="1.1" id="Layer_1" xmlns="http://www.w3.org/2000/svg" xmlns:xlink="http://www.w3.org/1999/xlink" x="0px" y="0px"
	 viewBox="0 0 263 152.1" enable-background="new 0 0 263 152.1" xml:space="preserve">
<g>
	<g>
		<g id="macs.psd_1_">
			<g id="macs_1_">
				<g id="iMac_1_">
					<g id="Shadow_21_" enable-background="new    ">
						<g>
							<g>
								<defs>
									<ellipse id="SVGID_1_" cx="133.1" cy="124.4" rx="35.2" ry="1.2"/>
								</defs>
								<clipPath id="SVGID_2_">
									<use xlink:href="#SVGID_1_"  overflow="visible"/>
								</clipPath>
								<g clip-path="url(#SVGID_2_)">
									
										<image overflow="visible" enable-background="new    " width="603" height="404" id="Shadow_22_" xlink:href="7B47A1795F7179E4.png"  transform="matrix(0.4559 0 0 0.4559 -5.9484 -17.5124)">
									</image>
								</g>
							</g>
						</g>
					</g>
					<g id="Device_9_">
						<g id="Stand_2_">
							<g>
								<polygon fill="#EAEBED" points="150.8,121.9 146.5,107.4 118.5,107.4 114.3,121.9 109.2,122.7 109.2,124 155.7,124 
									155.7,122.7 								"/>
							</g>
						</g>
						<g id="Shadow_20_" opacity="0.102">
							<g>
								<polygon fill="#49505F" points="146.5,107.4 118.5,107.4 117.5,110.6 147.5,110.6 								"/>
							</g>
						</g>
						<g id="iMac_base_2_">
							<g>
								<path fill="#49505F" d="M200,10.3H64.9c-1.7,0-3.1,1.4-3.1,3.1v81.1h141.4V13.4C203.1,11.7,201.7,10.3,200,10.3z"/>
							</g>
						</g>
						<g id="iMac_bottom_base_2_">
							<g>
								<path fill="#EAEBED" d="M61.8,94.6v9.8c0,1.7,1.4,3.1,3.1,3.1h135.1c1.7,0,3.1-1.4,3.1-3.1v-9.8H61.8z"/>
							</g>
						</g>
						<g id="Apple_2_">
							<g>
								<circle fill="#49505F" cx="132.6" cy="100.4" r="2.8"/>
							</g>
						</g>
						<g id="Screen_8_">
							<g>
								<rect x="67.3" y="15.8" fill="#45A948" width="130.5" height="73.3"/>
							</g>
						</g>
						<g id="Camera_4_">
							<g>
								<circle fill="#A7AEBD" cx="132.7" cy="13" r="0.6"/>
							</g>
						</g>
						<g id="Shape_1_2_">
							<g>
								<path fill="#3E9D46" d="M150.7,46.6c0.3,0,0.6-0.3,0.6-0.6v-5.3c0-0.3-0.3-0.6-0.6-0.6h-5.8v-5.8c0-0.3-0.3-0.6-0.6-0.6H139
									c-0.3,0-0.6,0.3-0.6,0.6v5.8h-11.7v-5.8c0-0.3-0.3-0.6-0.6-0.6h-5.3c-0.3,0-0.6,0.3-0.6,0.6v5.8h-5.8
									c-0.3,0-0.6,0.3-0.6,0.6V46c0,0.3,0.3,0.6,0.6,0.6h5.8v11.8h-5.8c-0.3,0-0.6,0.3-0.6,0.6v5.3c0,0.3,0.3,0.6,0.6,0.6h5.8v5.8
									c0,0.3,0.3,0.6,0.6,0.6h5.3c0.3,0,0.6-0.3,0.6-0.6v-5.8h11.7v5.8c0,0.3,0.3,0.6,0.6,0.6h5.3c0.3,0,0.6-0.3,0.6-0.6v-5.8h5.8
									c0.3,0,0.6-0.3,0.6-0.6V59c0-0.3-0.3-0.6-0.6-0.6h-5.8V46.6H150.7z M138.3,58.4h-11.7V46.6h11.7V58.4z"/>
							</g>
						</g>
					</g>
					
						<image overflow="visible" opacity="0.102" enable-background="new    " width="174" height="174" id="Light_9_" xlink:href="7B47A1795F7179E5.png"  transform="matrix(0.4562 0 0 0.4562 118.6492 15.3817)">
					</image>
				</g>
				<g id="Macbook_pro_retina_1_">
					<g id="Shadow_18_" enable-background="new    ">
						<g>
							<g>
								<defs>
									<ellipse id="SVGID_3_" cx="67" cy="137.3" rx="63.5" ry="1.6"/>
								</defs>
								<clipPath id="SVGID_4_">
									<use xlink:href="#SVGID_3_"  overflow="visible"/>
								</clipPath>
								<g clip-path="url(#SVGID_4_)">
									
										<image overflow="visible" enable-background="new    " width="603" height="404" id="Shadow_19_" xlink:href="7B47A1795F7179E3.png"  transform="matrix(0.4559 0 0 0.4559 -5.9484 -17.5124)">
									</image>
								</g>
							</g>
						</g>
					</g>
					<g id="Device_8_">
						<g id="Macbook_base_2_">
							<g>
								<path fill="#49505F" d="M109.7,71.5H24.3c-1.7,0-3.1,1.4-3.1,3.1v57.6h91.7V74.5C112.8,72.8,111.4,71.5,109.7,71.5z"/>
							</g>
						</g>
						<g id="Keyboard__x2B__trackpad_2_">
							<g>
								<path fill="#EAEBED" d="M9.3,132.2c0.2,3.1,2.8,5.5,5.9,5.5h103.4c3.1,0,5.6-2.4,5.9-5.5H9.3z"/>
							</g>
						</g>
						<g id="Open_2_">
							<g>
								<path fill="#D8DBE1" d="M58.8,132.2c0.2,0.9,1,1.6,1.9,1.6h12.6c1,0,1.7-0.6,1.9-1.6H58.8z"/>
							</g>
						</g>
						<g id="Screen_7_">
							<g>
								<rect x="24.3" y="74.5" fill="#45A948" width="85.4" height="54.4"/>
							</g>
						</g>
						<g id="Shape_1_copy_2_">
							<g>
								<path fill="#3E9D46" d="M79.6,98c0.2,0,0.4-0.2,0.4-0.4v-3.7c0-0.2-0.2-0.4-0.4-0.4h-4v-4c0-0.2-0.2-0.4-0.4-0.4h-3.7
									c-0.2,0-0.4,0.2-0.4,0.4v4h-8.4v-4c0-0.2-0.2-0.4-0.4-0.4h-3.7c-0.2,0-0.4,0.2-0.4,0.4v4h-4c-0.2,0-0.4,0.2-0.4,0.4v3.7
									c0,0.2,0.2,0.4,0.4,0.4h4v8.3h-4c-0.2,0-0.4,0.2-0.4,0.4v3.7c0,0.2,0.2,0.4,0.4,0.4h4v4c0,0.2,0.2,0.4,0.4,0.4h3.7
									c0.2,0,0.4-0.2,0.4-0.4v-4H71v4c0,0.2,0.2,0.4,0.4,0.4h3.7c0.2,0,0.4-0.2,0.4-0.4v-4h4c0.2,0,0.4-0.2,0.4-0.4v-3.7
									c0-0.2-0.2-0.4-0.4-0.4h-4V98H79.6z M71,106.3h-8.3V98H71V106.3z"/>
							</g>
						</g>
						<g id="Camera_3_">
							<g>
								<circle fill="#A7AEBD" cx="67" cy="72.9" r="0.6"/>
							</g>
						</g>
					</g>
					
						<image overflow="visible" opacity="0.102" enable-background="new    " width="130" height="130" id="Light_8_" xlink:href="7B47A1795F7179EC.png"  transform="matrix(0.4465 0 0 0.4465 51.771 74.4588)">
					</image>
				</g>
				<g id="ipad_1_">
					<g id="Shadow_16_" enable-background="new    ">
						<g>
							<g>
								<defs>
									<ellipse id="SVGID_5_" cx="192.9" cy="129.4" rx="27.8" ry="1.6"/>
								</defs>
								<clipPath id="SVGID_6_">
									<use xlink:href="#SVGID_5_"  overflow="visible"/>
								</clipPath>
								<g clip-path="url(#SVGID_6_)">
									
										<image overflow="visible" enable-background="new    " width="603" height="404" id="Shadow_17_" xlink:href="7B47A1795F7179EF.png"  transform="matrix(0.4559 0 0 0.4559 -5.9484 -17.5124)">
									</image>
								</g>
							</g>
						</g>
					</g>
					<g id="Device_7_">
						<g id="iPad_base_2_">
							<g>
								<path fill="#49505F" d="M215.2,60.5h-44.6c-2.1,0-3.9,1.7-3.9,3.9v61.1c0,2.1,1.7,3.9,3.9,3.9h44.6c2.1,0,3.9-1.7,3.9-3.9
									V64.4C219.1,62.2,217.4,60.5,215.2,60.5z"/>
							</g>
						</g>
						<g id="Screen_6_">
							<g>
								<rect x="171.8" y="67.5" fill="#45A948" width="42.3" height="54.8"/>
							</g>
						</g>
						<g id="Shape_1_copy_2_2_">
							<g>
								<path fill="#3E9D46" d="M205.8,91c0.2,0,0.4-0.2,0.4-0.4v-3.7c0-0.2-0.2-0.4-0.4-0.4h-4v-4c0-0.2-0.2-0.4-0.4-0.4h-3.8
									c-0.2,0-0.4,0.2-0.4,0.4v4h-8.4v-4c0-0.2-0.2-0.4-0.4-0.4h-3.8c-0.2,0-0.4,0.2-0.4,0.4v4h-4c-0.2,0-0.4,0.2-0.4,0.4v3.7
									c0,0.2,0.2,0.4,0.4,0.4h4v8.3h-4c-0.2,0-0.4,0.2-0.4,0.4v3.7c0,0.2,0.2,0.4,0.4,0.4h4v4c0,0.2,0.2,0.4,0.4,0.4h3.7
									c0.2,0,0.4-0.2,0.4-0.4v-4h8.3v4c0,0.2,0.2,0.4,0.4,0.4h3.7c0.2,0,0.4-0.2,0.4-0.4v-4h4c0.2,0,0.4-0.2,0.4-0.4v-3.7
									c0-0.2-0.2-0.4-0.4-0.4h-4V91H205.8z M197.1,99.4h-8.3v-8.3h8.3V99.4z"/>
							</g>
						</g>
						<g id="Homebutton_6_">
							<g>
								<circle fill="#FFFFFF" cx="192.9" cy="125.9" r="1.6"/>
							</g>
						</g>
						<g id="Speaker__x2B__cam_6_">
							<g>
								<path fill="#A7AEBD" d="M190.2,64c-0.2,0-0.4,0.2-0.4,0.4s0.2,0.4,0.4,0.4s0.4-0.2,0.4-0.4C190.6,64.2,190.4,64,190.2,64z
									 M196,64h-3.9c-0.2,0-0.4,0.2-0.4,0.4s0.2,0.4,0.4,0.4h3.9c0.2,0,0.4-0.2,0.4-0.4C196.4,64.2,196.2,64,196,64z"/>
							</g>
						</g>
					</g>
					
						<image overflow="visible" opacity="0.149" enable-background="new    " width="107" height="137" id="Light_7_" xlink:href="7B47A1795F7179ED.png"  transform="matrix(0.4535 0 0 0.4535 166.1959 67.3673)">
					</image>
				</g>
				<g id="Ipad_mini_1_">
					<g id="Shadow_14_" enable-background="new    ">
						<g>
							<g>
								<defs>
									<ellipse id="SVGID_7_" cx="241.1" cy="129.4" rx="18.4" ry="1.6"/>
								</defs>
								<clipPath id="SVGID_8_">
									<use xlink:href="#SVGID_7_"  overflow="visible"/>
								</clipPath>
								<g clip-path="url(#SVGID_8_)">
									
										<image overflow="visible" enable-background="new    " width="603" height="404" id="Shadow_15_" xlink:href="7B47A1795F7179E2.png"  transform="matrix(0.4559 0 0 0.4559 -5.9484 -17.5124)">
									</image>
								</g>
							</g>
						</g>
					</g>
					<g id="Device_6_">
						<g id="iPad_mini_base_2_">
							<g>
								<path fill="#49505F" d="M255.6,75.4h-28.5c-2.1,0-3.9,1.7-3.9,3.9v46.2c0,2.1,1.7,3.9,3.9,3.9h28.5c2.1,0,3.9-1.7,3.9-3.9
									V79.2C259.5,77.1,257.8,75.4,255.6,75.4z"/>
							</g>
						</g>
						<g id="Screen_5_">
							<g>
								<rect x="224.7" y="80.4" fill="#45A948" width="33.3" height="43.4"/>
							</g>
						</g>
						<g id="Shape_1_copy_4_2_">
							<g>
								<path fill="#3E9D46" d="M248.7,100.3c0.1,0,0.2-0.1,0.2-0.2v-2c0-0.1-0.1-0.2-0.2-0.2h-2.2v-2.2c0-0.1-0.1-0.2-0.2-0.2h-2.1
									c-0.1,0-0.2,0.1-0.2,0.2v2.2h-4.6v-2.2c0-0.1-0.1-0.2-0.2-0.2h-2c-0.1,0-0.2,0.1-0.2,0.2v2.2h-2.2c-0.1,0-0.2,0.1-0.2,0.2v2
									c0,0.1,0.1,0.2,0.2,0.2h2.2v4.6h-2.2c-0.1,0-0.2,0.1-0.2,0.2v2c0,0.1,0.1,0.2,0.2,0.2h2.2v2.2c0,0.1,0.1,0.2,0.2,0.2h2
									c0.1,0,0.2-0.1,0.2-0.2v-2.2h4.6v2.2c0,0.1,0.1,0.2,0.2,0.2h2c0.1,0,0.2-0.1,0.2-0.2v-2.2h2.2c0.1,0,0.2-0.1,0.2-0.2v-2
									c0-0.1-0.1-0.2-0.2-0.2h-2.2v-4.6H248.7z M243.8,104.9h-4.6v-4.6h4.6V104.9z"/>
							</g>
						</g>
						<g id="Homebutton_5_">
							<g>
								<circle fill="#FFFFFF" cx="240.7" cy="126.6" r="1.6"/>
							</g>
						</g>
						<g id="Speaker__x2B__cam_5_">
							<g>
								<path fill="#A7AEBD" d="M237.1,77.7c-0.2,0-0.4,0.2-0.4,0.4c0,0.2,0.2,0.4,0.4,0.4s0.4-0.2,0.4-0.4
									C237.6,77.8,237.4,77.7,237.1,77.7z M243.1,77.7h-3.9c-0.2,0-0.4,0.2-0.4,0.4c0,0.2,0.2,0.4,0.4,0.4h3.9
									c0.2,0,0.4-0.2,0.4-0.4C243.4,77.8,243.3,77.7,243.1,77.7z"/>
							</g>
						</g>
					</g>
					
						<image overflow="visible" opacity="0.102" enable-background="new    " width="79" height="109" id="Light_6_" xlink:href="7B47A1795F7179E6.png"  transform="matrix(0.4494 0 0 0.4494 222.726 80.5987)">
					</image>
				</g>
				<g id="iPhone_1_">
					<g id="Shadow_12_" enable-background="new    ">
						<g>
							<g>
								<defs>
									<ellipse id="SVGID_9_" cx="218.9" cy="137.7" rx="13.5" ry="1.2"/>
								</defs>
								<clipPath id="SVGID_10_">
									<use xlink:href="#SVGID_9_"  overflow="visible"/>
								</clipPath>
								<g clip-path="url(#SVGID_10_)">
									
										<image overflow="visible" enable-background="new    " width="603" height="404" id="Shadow_13_" xlink:href="7B47A1795F7179E7.png"  transform="matrix(0.4559 0 0 0.4559 -5.9484 -17.5124)">
									</image>
								</g>
							</g>
						</g>
					</g>
					<g id="Device_5_">
						<g id="iPhone_5_base_2_">
							<g>
								<path fill="#49505F" d="M226.6,89h-14.9c-2.1,0-3.9,1.7-3.9,3.9v40.8c0,2.1,1.7,3.9,3.9,3.9h14.9c2.1,0,3.9-1.7,3.9-3.9V93
									C230.5,90.8,228.7,89,226.6,89z"/>
							</g>
						</g>
						<g id="screen_2_">
							<g>
								<rect x="209.3" y="96.2" fill="#45A948" width="19.6" height="34.5"/>
							</g>
						</g>
						<g id="Shape_1_copy_3_2_">
							<g>
								<path fill="#3E9D46" d="M225.7,110.4c0.1,0,0.2-0.1,0.2-0.2v-2c0-0.1-0.1-0.2-0.2-0.2h-2.2v-2.2c0-0.1-0.1-0.2-0.2-0.2h-2
									c-0.1,0-0.2,0.1-0.2,0.2v2.2h-4.6v-2.2c0-0.1-0.1-0.2-0.2-0.2h-2c-0.1,0-0.2,0.1-0.2,0.2v2.2h-2.2c-0.1,0-0.2,0.1-0.2,0.2v2
									c0,0.1,0.1,0.2,0.2,0.2h2.2v4.6h-2.2c-0.1,0-0.2,0.1-0.2,0.2v2c0,0.1,0.1,0.2,0.2,0.2h2.2v2.2c0,0.1,0.1,0.2,0.2,0.2h2
									c0.1,0,0.2-0.1,0.2-0.2v-2.1h4.6v2.2c0,0.1,0.1,0.2,0.2,0.2h2c0.1,0,0.2-0.1,0.2-0.2v-2.2h2.2c0.1,0,0.2-0.1,0.2-0.2v-2
									c0-0.1-0.1-0.2-0.2-0.2h-2.2v-4.6L225.7,110.4L225.7,110.4z M221,114.9h-4.6v-4.6h4.6V114.9z"/>
							</g>
						</g>
						<g id="Homebutton_4_">
							<g>
								<circle fill="#FFFFFF" cx="219.1" cy="134.1" r="1.6"/>
							</g>
						</g>
						<g id="Speaker__x2B__cam_4_">
							<g>
								<path fill="#A7AEBD" d="M216.1,92.5c-0.2,0-0.4,0.2-0.4,0.4c0,0.2,0.2,0.4,0.4,0.4s0.4-0.2,0.4-0.4
									C216.5,92.8,216.3,92.5,216.1,92.5z M221.9,92.5H218c-0.2,0-0.4,0.2-0.4,0.4c0,0.2,0.2,0.4,0.4,0.4h3.9
									c0.2,0,0.4-0.2,0.4-0.4C222.3,92.8,222.1,92.5,221.9,92.5z"/>
							</g>
						</g>
					</g>
					
						<image overflow="visible" opacity="0.102" enable-background="new    " width="49" height="93" id="Light_5_" xlink:href="D15A568ACB669E43.png"  transform="matrix(0.4412 0 0 0.4412 207.4111 96.7315)">
					</image>
				</g>
			</g>
		</g>
	</g>
</g>
</svg>
