<?xml version="1.0" encoding="utf-8"?>
<!-- Generator: Adobe Illustrator 18.1.0, SVG Export Plug-In . SVG Version: 6.00 Build 0)  -->
<svg version="1.1" id="Layer_1" xmlns="http://www.w3.org/2000/svg" xmlns:xlink="http://www.w3.org/1999/xlink" x="0px" y="0px"
	 viewBox="-255 347 100 100" enable-background="new -255 347 100 100" xml:space="preserve">
<path fill="#c6c6c6" d="M-187.4,406.1c-3,0-5.7,1.2-7.7,3.2l-16.9-9.9c0.3-1,0.4-2,0.4-3c0-1-0.1-2-0.4-2.9l16.8-9.5
	c2,2.1,4.7,3.4,7.8,3.4c5.9,0,10.8-4.8,10.8-10.8c0-5.9-4.8-10.8-10.8-10.8c-5.9,0-10.8,4.8-10.8,10.8c0,1,0.1,2,0.4,2.9l-16.8,9.5
	c-2-2.1-4.7-3.4-7.8-3.4c-5.9,0-10.8,4.8-10.8,10.8c0,5.9,4.8,10.8,10.8,10.8c3,0,5.7-1.2,7.7-3.2l16.9,9.9c-0.3,1-0.4,2-0.4,3
	c0,5.9,4.8,10.8,10.8,10.8c5.9,0,10.8-4.8,10.8-10.8C-176.6,410.9-181.4,406.1-187.4,406.1z"/>
</svg>
