<?xml version="1.0" encoding="utf-8"?>
<!-- Generator: Adobe Illustrator 18.1.0, SVG Export Plug-In . SVG Version: 6.00 Build 0)  -->
<svg version="1.1" id="Layer_1" xmlns="http://www.w3.org/2000/svg" xmlns:xlink="http://www.w3.org/1999/xlink" x="0px" y="0px"
	 viewBox="0 0 44.7 48.8" enable-background="new 0 0 44.7 48.8" xml:space="preserve">
<path fill="#C6C6C6" d="M36.4,32.1c-2.3,0-4.4,0.9-5.9,2.5L17.4,27c0.2-0.8,0.3-1.5,0.3-2.3c0-0.8-0.1-1.5-0.3-2.2l13-7.3
	c1.5,1.6,3.6,2.6,6,2.6c4.6,0,8.3-3.7,8.3-8.3C44.7,4.8,41,1,36.4,1C31.8,1,28,4.7,28,9.3c0,0.8,0.1,1.5,0.3,2.2l-13,7.3
	c-1.5-1.6-3.6-2.6-6-2.6C4.8,16.3,1,20,1,24.6C1,29.2,4.7,33,9.3,33c2.3,0,4.4-0.9,5.9-2.5l13.1,7.6c-0.2,0.8-0.3,1.5-0.3,2.3
	c0,4.6,3.7,8.3,8.3,8.3c4.6,0,8.3-3.7,8.3-8.3C44.7,35.8,41,32.1,36.4,32.1z"/>
</svg>
