<?xml version="1.0" encoding="utf-8"?>
<!-- Generator: Adobe Illustrator 18.1.0, SVG Export Plug-In . SVG Version: 6.00 Build 0)  -->
<svg version="1.1" xmlns="http://www.w3.org/2000/svg" xmlns:xlink="http://www.w3.org/1999/xlink" x="0px" y="0px"
	 viewBox="0 0 200 200" enable-background="new 0 0 200 200" xml:space="preserve">
<g id="Layer_1">
</g>
<g id="Broken_Heart_With_Crack_Line">
</g>
<g id="Sad_Face">
	<g>
		<path fill="#42A80B" d="M99,194.4c-52.6,0-95.3-42.8-95.3-95.4S46.5,3.7,99,3.7c52.6,0,95.4,42.8,95.4,95.3S151.6,194.4,99,194.4z
			 M99,15.2c-46.2,0-83.8,37.6-83.8,83.8s37.6,83.8,83.8,83.8s83.8-37.6,83.8-83.8S145.2,15.2,99,15.2z"/>
		<circle fill="#42A80B" cx="75.6" cy="75.3" r="12.5"/>
		<circle fill="#42A80B" cx="122.5" cy="75.3" r="12.5"/>
		<path fill="#42A80B" d="M63.1,139.9l-6.9-9.2c51.9-39,89,0.3,89.4,0.7l-8.5,7.8C135.8,137.9,106.5,107.3,63.1,139.9z"/>
	</g>
</g>
</svg>
