<?xml version="1.0" encoding="utf-8"?>
<!-- Generator: Adobe Illustrator 18.1.0, SVG Export Plug-In . SVG Version: 6.00 Build 0)  -->
<svg version="1.1" id="Layer_1" xmlns="http://www.w3.org/2000/svg" xmlns:xlink="http://www.w3.org/1999/xlink" x="0px" y="0px"
	 viewBox="-257 349 96 96" enable-background="new -257 349 96 96" xml:space="preserve">
<g>
	<path fill="#c6c6c6" d="M-249.2,413.1c-1.5-2.2-2.4-4.8-2.4-7.5c0-3.4,1.3-6.4,3.4-8.7v-29.5h78.3v29.5c2.1,2.3,3.4,5.4,3.4,8.7
		c0,2.7-0.8,5.3-2.4,7.5c1.6,1.1,2.9,2.4,4.1,4h0.8v-55.7h-90.3V417h0.8C-252.1,415.5-250.8,414.2-249.2,413.1z"/>
	<path fill="#c6c6c6" d="M-172.7,413.7c2.3-1.9,3.8-4.8,3.8-8c0-5.7-4.7-10.4-10.4-10.4c-5.7,0-10.4,4.7-10.4,10.4
		c0,3.2,1.5,6.1,3.8,8c-3.5,1.7-6.5,4.7-8.3,8.5c-1.8-3.8-4.7-6.8-8.3-8.5c2.3-1.9,3.8-4.8,3.8-8c0-5.7-4.7-10.4-10.4-10.4
		c-5.7,0-10.4,4.7-10.4,10.4c0,3.2,1.5,6.1,3.8,8c-3.5,1.7-6.4,4.6-8.2,8.4c-1.8-3.7-4.7-6.7-8.2-8.4c2.3-1.9,3.8-4.8,3.8-8
		c0-5.7-4.7-10.4-10.4-10.4c-5.7,0-10.4,4.7-10.4,10.4c0,3.2,1.5,6.1,3.8,8c-6,2.9-10.2,9.5-10.2,17.2v2h29.6h4h25.7h3.9h29.7v-2
		C-162.5,423.2-166.7,416.6-172.7,413.7z"/>
</g>
</svg>
