<?xml version="1.0" encoding="utf-8"?>
<!-- Generator: Adobe Illustrator 18.1.0, SVG Export Plug-In . SVG Version: 6.00 Build 0)  -->
<svg version="1.1" id="Capa_1" xmlns="http://www.w3.org/2000/svg" xmlns:xlink="http://www.w3.org/1999/xlink" x="0px" y="0px"
	 viewBox="-289 381.1 32.2 30.9" enable-background="new -289 381.1 32.2 30.9" xml:space="preserve">
<path fill="#c6c6c6" d="M-256.9,392.9c-0.5-1.5-3.2-1.9-6.1-2.3c-1.6-0.2-3.4-0.4-3.9-0.8c-0.5-0.4-1.3-2-2-3.5
	c-1.2-2.6-2.4-5.1-4-5.1l0,0c-1.6,0-2.8,2.5-4,5.1c-0.7,1.4-1.5,3.1-2,3.5c-0.5,0.4-2.3,0.6-3.9,0.8c-2.9,0.4-5.6,0.7-6.1,2.2
	c-0.5,1.5,1.5,3.4,3.6,5.4c1.2,1.1,2.5,2.3,2.7,3c0.2,0.6-0.1,2.4-0.4,4c-0.6,2.8-1.1,5.5,0.2,6.5c0.3,0.2,0.7,0.3,1.2,0.3
	c1.3,0,3.2-1.1,5.1-2.1c1.4-0.8,3-1.6,3.7-1.6c0.7,0,2.3,0.9,3.6,1.7c1.9,1.1,3.9,2.1,5.2,2.1c0.4,0,0.8-0.1,1.1-0.3
	c1.3-0.9,0.8-3.6,0.3-6.5c-0.3-1.6-0.6-3.3-0.4-4c0.2-0.6,1.5-1.9,2.7-3C-258.4,396.3-256.4,394.4-256.9,392.9z"/>
</svg>
